<?xml version="1.0" encoding="UTF-8" standalone="no"?>
<!DOCTYPE svg PUBLIC "-//W3C//DTD SVG 1.1//EN"
 "http://www.w3.org/Graphics/SVG/1.1/DTD/svg11.dtd">
<!-- Generated by graphviz version 9.0.0 (20230911.1827)
 -->
<!-- Title: G Pages: 1 -->
<svg width="894pt" height="621pt"
 viewBox="0.00 0.00 893.60 620.93" xmlns="http://www.w3.org/2000/svg" xmlns:xlink="http://www.w3.org/1999/xlink">
<g id="graph0" class="graph" transform="scale(1 1) rotate(0) translate(4 616.93)">
<title>G</title><style>.edge>path:hover{stroke-width:8}</style>
<polygon fill="white" stroke="none" points="-4,4 -4,-616.93 889.6,-616.93 889.6,4 -4,4"/>
<!-- ase -->
<g id="node1" class="node">
<title>ase</title><style>.edge>path:hover{stroke-width:8}</style>
<polygon fill="#f90606" stroke="black" points="444.65,-217 441.65,-221 420.65,-221 417.65,-217 390.65,-217 390.65,-181 444.65,-181 444.65,-217"/>
<text text-anchor="middle" x="417.65" y="-195.12" font-family="Helvetica,sans-Serif" font-size="10.00" fill="#ffffff">ase</text>
</g>
<!-- qse -->
<g id="node6" class="node">
<title>qse</title><style>.edge>path:hover{stroke-width:8}</style>
<polygon fill="blue" stroke="black" points="348.65,-610.05 294.65,-610.05 294.65,-574.05 348.65,-574.05 348.65,-610.05"/>
<text text-anchor="middle" x="321.65" y="-588.18" font-family="Helvetica,sans-Serif" font-size="10.00" fill="white">qse</text>
</g>
<!-- ase&#45;&gt;qse -->
<g id="edge1" class="edge">
<title>ase&#45;&gt;qse</title><style>.edge>path:hover{stroke-width:8}</style>
<path fill="none" stroke="black" d="M395.65,-272C390.27,-281.97 385.91,-282.47 376.65,-289 349.35,-308.27 331.4,-298.81 310.65,-325 271.1,-374.93 292.86,-402.77 272.65,-463.18 264.61,-487.21 239.94,-493.71 251.65,-516.18"/>
</g>
<!-- qse_calc_calculator -->
<g id="node8" class="node">
<title>qse_calc_calculator</title><style>.edge>path:hover{stroke-width:8}</style>
<polygon fill="blue" stroke="black" points="462.65,-462.49 404.65,-462.49 404.65,-420.74 462.65,-420.74 462.65,-462.49"/>
<text text-anchor="middle" x="433.65" y="-448.99" font-family="Helvetica,sans-Serif" font-size="10.00" fill="white">qse.</text>
<text text-anchor="middle" x="433.65" y="-437.74" font-family="Helvetica,sans-Serif" font-size="10.00" fill="white">calc.</text>
<text text-anchor="middle" x="433.65" y="-426.49" font-family="Helvetica,sans-Serif" font-size="10.00" fill="white">calculator</text>
</g>
<!-- ase&#45;&gt;qse_calc_calculator -->
<g id="edge2" class="edge">
<title>ase&#45;&gt;qse_calc_calculator</title><style>.edge>path:hover{stroke-width:8}</style>
<path fill="none" stroke="black" d="M395.65,-272C376.67,-307.18 429.19,-313.8 433.65,-353.52"/>
<path fill="none" stroke="black" d="M433.65,-355.52C435.62,-373.07 435.75,-392.78 435.33,-408.81"/>
<polygon fill="#f90606" stroke="black" points="431.83,-408.62 434.98,-418.74 438.83,-408.87 431.83,-408.62"/>
</g>
<!-- qse_constraints -->
<g id="node12" class="node">
<title>qse_constraints</title><style>.edge>path:hover{stroke-width:8}</style>
<ellipse fill="#314172" stroke="black" cx="676.65" cy="-441.61" rx="45.25" ry="21.57"/>
<text text-anchor="middle" x="676.65" y="-443.36" font-family="Helvetica,sans-Serif" font-size="10.00" fill="#ffffff">qse.</text>
<text text-anchor="middle" x="676.65" y="-432.11" font-family="Helvetica,sans-Serif" font-size="10.00" fill="#ffffff">constraints</text>
</g>
<!-- ase&#45;&gt;qse_constraints -->
<g id="edge3" class="edge">
<title>ase&#45;&gt;qse_constraints</title><style>.edge>path:hover{stroke-width:8}</style>
<path fill="none" stroke="black" d="M711.65,-355.52C717.37,-374.66 709.15,-395.4 699.24,-411.62"/>
<polygon fill="#f90606" stroke="black" points="696.42,-409.54 693.81,-419.81 702.25,-413.42 696.42,-409.54"/>
<path fill="none" stroke="black" d="M442.15,-217.37C470.84,-237.04 520.33,-268.96 566.65,-289 631.39,-317.01 691.46,-285.94 711.65,-353.52"/>
</g>
<!-- qse_qbits -->
<g id="node15" class="node">
<title>qse_qbits</title><style>.edge>path:hover{stroke-width:8}</style>
<polygon fill="blue" stroke="black" points="263.52,-459.61 207.77,-459.61 207.77,-423.61 263.52,-423.61 263.52,-459.61"/>
<text text-anchor="middle" x="235.65" y="-437.74" font-family="Helvetica,sans-Serif" font-size="10.00" fill="white">qse.qbits</text>
</g>
<!-- ase&#45;&gt;qse_qbits -->
<g id="edge4" class="edge">
<title>ase&#45;&gt;qse_qbits</title><style>.edge>path:hover{stroke-width:8}</style>
<path fill="none" stroke="black" d="M395.65,-272C375.42,-309.51 300.24,-309.21 277.65,-325 264.07,-334.49 263.26,-340.03 253.65,-353.52"/>
<path fill="none" stroke="black" d="M414.12,-217.42C410.72,-232.04 404.72,-253.18 395.65,-270"/>
</g>
<!-- matplotlib -->
<g id="node2" class="node">
<title>matplotlib</title><style>.edge>path:hover{stroke-width:8}</style>
<polygon fill="blue" stroke="black" points="576.65,-145 573.65,-149 552.65,-149 549.65,-145 518.65,-145 518.65,-109 576.65,-109 576.65,-145"/>
<text text-anchor="middle" x="547.65" y="-123.12" font-family="Helvetica,sans-Serif" font-size="10.00" fill="white">matplotlib</text>
</g>
<!-- pulser -->
<g id="node4" class="node">
<title>pulser</title><style>.edge>path:hover{stroke-width:8}</style>
<polygon fill="blue" stroke="black" points="629.65,-289 626.65,-293 605.65,-293 602.65,-289 575.65,-289 575.65,-253 629.65,-253 629.65,-289"/>
<text text-anchor="middle" x="602.65" y="-267.12" font-family="Helvetica,sans-Serif" font-size="10.00" fill="white">pulser</text>
</g>
<!-- matplotlib&#45;&gt;pulser -->
<g id="edge5" class="edge">
<title>matplotlib&#45;&gt;pulser</title><style>.edge>path:hover{stroke-width:8}</style>
<path fill="none" stroke="black" d="M604.65,-200C607.02,-213.43 606.93,-228.53 606.08,-241.25"/>
<polygon fill="blue" stroke="black" points="602.6,-240.82 605.22,-251.09 609.58,-241.43 602.6,-240.82"/>
<path fill="none" stroke="black" d="M570.42,-145.33C584.62,-158.02 600.89,-176.7 604.65,-198"/>
</g>
<!-- qse_visualise -->
<g id="node19" class="node">
<title>qse_visualise</title><style>.edge>path:hover{stroke-width:8}</style>
<ellipse fill="#2f52bc" stroke="black" cx="324.65" cy="-271" rx="43.19" ry="18"/>
<text text-anchor="middle" x="324.65" y="-267.12" font-family="Helvetica,sans-Serif" font-size="10.00" fill="#ffffff">qse.visualise</text>
</g>
<!-- matplotlib&#45;&gt;qse_visualise -->
<g id="edge6" class="edge">
<title>matplotlib&#45;&gt;qse_visualise</title><style>.edge>path:hover{stroke-width:8}</style>
<path fill="none" stroke="black" d="M518.16,-131.27C482.61,-136.5 422.55,-149.57 381.65,-181 360.78,-197.03 345.4,-223.04 335.91,-242.81"/>
<polygon fill="blue" stroke="black" points="332.84,-241.12 331.88,-251.67 339.21,-244.02 332.84,-241.12"/>
</g>
<!-- qutip -->
<g id="node20" class="node">
<title>qutip</title><style>.edge>path:hover{stroke-width:8}</style>
<polygon fill="#7a3db8" stroke="black" points="574.65,-217 571.65,-221 550.65,-221 547.65,-217 520.65,-217 520.65,-181 574.65,-181 574.65,-217"/>
<text text-anchor="middle" x="547.65" y="-195.12" font-family="Helvetica,sans-Serif" font-size="10.00" fill="#ffffff">qutip</text>
</g>
<!-- matplotlib&#45;&gt;qutip -->
<g id="edge7" class="edge">
<title>matplotlib&#45;&gt;qutip</title><style>.edge>path:hover{stroke-width:8}</style>
<path fill="none" stroke="black" d="M547.65,-145.3C547.65,-152.59 547.65,-161.27 547.65,-169.46"/>
<polygon fill="blue" stroke="black" points="544.15,-169.38 547.65,-179.38 551.15,-169.38 544.15,-169.38"/>
</g>
<!-- numpy -->
<g id="node3" class="node">
<title>numpy</title><style>.edge>path:hover{stroke-width:8}</style>
<polygon fill="#80f906" stroke="black" points="631.65,-36 628.65,-40 607.65,-40 604.65,-36 577.65,-36 577.65,0 631.65,0 631.65,-36"/>
<text text-anchor="middle" x="604.65" y="-14.12" font-family="Helvetica,sans-Serif" font-size="10.00" fill="#000000">numpy</text>
</g>
<!-- numpy&#45;&gt;ase -->
<g id="edge8" class="edge">
<title>numpy&#45;&gt;ase</title><style>.edge>path:hover{stroke-width:8}</style>
<path fill="none" stroke="black" d="M371.65,-128C357.02,-140.42 369.7,-158.65 385.43,-173.38"/>
<polygon fill="#80f906" stroke="black" points="382.83,-175.76 392.66,-179.73 387.45,-170.5 382.83,-175.76"/>
</g>
<!-- numpy&#45;&gt;matplotlib -->
<g id="edge9" class="edge">
<title>numpy&#45;&gt;matplotlib</title><style>.edge>path:hover{stroke-width:8}</style>
<path fill="none" stroke="black" d="M604.65,-73C602.71,-85.03 595.07,-95.16 585.98,-103.24"/>
<polygon fill="#80f906" stroke="black" points="583.83,-100.47 578.15,-109.41 588.17,-105.97 583.83,-100.47"/>
</g>
<!-- numpy&#45;&gt;pulser -->
<g id="edge10" class="edge">
<title>numpy&#45;&gt;pulser</title><style>.edge>path:hover{stroke-width:8}</style>
<path fill="none" stroke="black" d="M604.65,-73C595.83,-127.85 595,-143.29 604.65,-198"/>
</g>
<!-- numpy&#45;&gt;qse_calc_calculator -->
<g id="edge11" class="edge">
<title>numpy&#45;&gt;qse_calc_calculator</title><style>.edge>path:hover{stroke-width:8}</style>
<path fill="none" stroke="black" d="M482.65,-200C509.55,-266.38 425.66,-282.35 433.65,-353.52"/>
<path fill="none" stroke="black" d="M371.65,-128C326.25,-164.61 454.81,-146.75 482.65,-198"/>
</g>
<!-- qse_calc_myqlm -->
<g id="node10" class="node">
<title>qse_calc_myqlm</title><style>.edge>path:hover{stroke-width:8}</style>
<polygon fill="blue" stroke="black" points="678.15,-535.18 593.15,-535.18 593.15,-499.18 678.15,-499.18 678.15,-535.18"/>
<text text-anchor="middle" x="635.65" y="-513.3" font-family="Helvetica,sans-Serif" font-size="10.00" fill="white">qse.calc.myqlm</text>
</g>
<!-- numpy&#45;&gt;qse_calc_myqlm -->
<g id="edge12" class="edge">
<title>numpy&#45;&gt;qse_calc_myqlm</title><style>.edge>path:hover{stroke-width:8}</style>
<path fill="none" stroke="black" d="M604.65,-73C597.25,-115.86 661.17,-82.49 695.65,-109 766.19,-163.24 782.71,-186.95 814.65,-270"/>
<path fill="none" stroke="black" d="M749.65,-355.52C725.13,-397.46 758.81,-423.59 730.65,-463.18 720.23,-477.82 704.43,-488.9 688.69,-497.04"/>
<polygon fill="#80f906" stroke="black" points="687.28,-493.84 679.78,-501.32 690.31,-500.15 687.28,-493.84"/>
</g>
<!-- qse_calc_pulser -->
<g id="node11" class="node">
<title>qse_calc_pulser</title><style>.edge>path:hover{stroke-width:8}</style>
<polygon fill="blue" stroke="black" points="517.65,-612.93 463.65,-612.93 463.65,-571.18 517.65,-571.18 517.65,-612.93"/>
<text text-anchor="middle" x="490.65" y="-599.43" font-family="Helvetica,sans-Serif" font-size="10.00" fill="white">qse.</text>
<text text-anchor="middle" x="490.65" y="-588.18" font-family="Helvetica,sans-Serif" font-size="10.00" fill="white">calc.</text>
<text text-anchor="middle" x="490.65" y="-576.93" font-family="Helvetica,sans-Serif" font-size="10.00" fill="white">pulser</text>
</g>
<!-- numpy&#45;&gt;qse_calc_pulser -->
<g id="edge13" class="edge">
<title>numpy&#45;&gt;qse_calc_pulser</title><style>.edge>path:hover{stroke-width:8}</style>
<path fill="none" stroke="black" d="M814.65,-272C821.3,-302.47 849.74,-295.78 860.65,-325 890.52,-404.99 903.11,-456.9 841.65,-516.18"/>
</g>
<!-- numpy&#45;&gt;qse_constraints -->
<g id="edge14" class="edge">
<title>numpy&#45;&gt;qse_constraints</title><style>.edge>path:hover{stroke-width:8}</style>
<path fill="none" stroke="black" d="M749.65,-355.52C737.22,-376.79 719.23,-397.82 704.23,-413.66"/>
<polygon fill="#80f906" stroke="black" points="701.75,-411.19 697.31,-420.8 706.78,-416.06 701.75,-411.19"/>
<path fill="none" stroke="black" d="M814.65,-272C825.85,-301.11 787.56,-300.19 768.65,-325 759.42,-337.11 757.34,-340.37 749.65,-353.52"/>
</g>
<!-- qse_magnetic -->
<g id="node13" class="node">
<title>qse_magnetic</title><style>.edge>path:hover{stroke-width:8}</style>
<polygon fill="blue" stroke="black" points="535.9,-372.52 461.4,-372.52 461.4,-336.52 535.9,-336.52 535.9,-372.52"/>
<text text-anchor="middle" x="498.65" y="-350.65" font-family="Helvetica,sans-Serif" font-size="10.00" fill="white">qse.magnetic</text>
</g>
<!-- numpy&#45;&gt;qse_magnetic -->
<g id="edge15" class="edge">
<title>numpy&#45;&gt;qse_magnetic</title><style>.edge>path:hover{stroke-width:8}</style>
<path fill="none" stroke="black" d="M482.65,-200C500.84,-240.54 502.18,-292.97 500.87,-324.88"/>
<polygon fill="#80f906" stroke="black" points="497.39,-324.35 500.34,-334.53 504.38,-324.73 497.39,-324.35"/>
</g>
<!-- qse_qbit -->
<g id="node14" class="node">
<title>qse_qbit</title><style>.edge>path:hover{stroke-width:8}</style>
<ellipse fill="#3359cc" stroke="black" cx="157.65" cy="-354.52" rx="29.88" ry="18"/>
<text text-anchor="middle" x="157.65" y="-350.65" font-family="Helvetica,sans-Serif" font-size="10.00" fill="#ffffff">qse.qbit</text>
</g>
<!-- numpy&#45;&gt;qse_qbit -->
<g id="edge16" class="edge">
<title>numpy&#45;&gt;qse_qbit</title><style>.edge>path:hover{stroke-width:8}</style>
<path fill="none" stroke="black" d="M253.65,-272C234.92,-296.64 207.54,-318.96 186.81,-333.99"/>
<polygon fill="#80f906" stroke="black" points="184.9,-331.06 178.76,-339.69 188.95,-336.77 184.9,-331.06"/>
<path fill="none" stroke="black" d="M371.65,-128C342.48,-151.52 343.21,-165.45 324.65,-198"/>
<path fill="none" stroke="black" d="M324.65,-200C302.7,-238.5 280.47,-234.72 253.65,-270"/>
</g>
<!-- numpy&#45;&gt;qse_qbits -->
<g id="edge17" class="edge">
<title>numpy&#45;&gt;qse_qbits</title><style>.edge>path:hover{stroke-width:8}</style>
<path fill="none" stroke="black" d="M253.65,-355.52C241.97,-371.91 237.58,-394.29 236.04,-411.98"/>
<polygon fill="#80f906" stroke="black" points="232.56,-411.66 235.47,-421.84 239.54,-412.06 232.56,-411.66"/>
<path fill="none" stroke="black" d="M253.65,-272C231.72,-300.84 274.68,-324.02 253.65,-353.52"/>
</g>
<!-- qse_Signal -->
<g id="node16" class="node">
<title>qse_Signal</title><style>.edge>path:hover{stroke-width:8}</style>
<ellipse fill="#405fc0" stroke="black" cx="814.65" cy="-354.52" rx="36.54" ry="18"/>
<text text-anchor="middle" x="814.65" y="-350.65" font-family="Helvetica,sans-Serif" font-size="10.00" fill="#ffffff">qse.Signal</text>
</g>
<!-- numpy&#45;&gt;qse_Signal -->
<g id="edge18" class="edge">
<title>numpy&#45;&gt;qse_Signal</title><style>.edge>path:hover{stroke-width:8}</style>
<path fill="none" stroke="black" d="M814.65,-272C821.09,-288.74 821.15,-308.88 819.58,-324.95"/>
<polygon fill="#80f906" stroke="black" points="816.11,-324.46 818.32,-334.82 823.05,-325.35 816.11,-324.46"/>
</g>
<!-- qse_signal -->
<g id="node17" class="node">
<title>qse_signal</title><style>.edge>path:hover{stroke-width:8}</style>
<ellipse fill="#405fc0" stroke="black" cx="35.65" cy="-271" rx="35.65" ry="18"/>
<text text-anchor="middle" x="35.65" y="-267.12" font-family="Helvetica,sans-Serif" font-size="10.00" fill="#ffffff">qse.signal</text>
</g>
<!-- numpy&#45;&gt;qse_signal -->
<g id="edge19" class="edge">
<title>numpy&#45;&gt;qse_signal</title><style>.edge>path:hover{stroke-width:8}</style>
<path fill="none" stroke="black" d="M606.13,-36.31C606.65,-46.73 606.69,-60.21 604.65,-72"/>
<path fill="none" stroke="black" d="M604.65,-73C595.61,-125.33 412.12,-91.63 371.65,-126"/>
<path fill="none" stroke="black" d="M371.65,-128C321.57,-170.53 294.3,-155.74 233.65,-181 176.41,-204.84 110.96,-234.8 71.49,-253.16"/>
<polygon fill="#80f906" stroke="black" points="70.04,-249.98 62.45,-257.38 73,-256.32 70.04,-249.98"/>
</g>
<!-- qse_utils -->
<g id="node18" class="node">
<title>qse_utils</title><style>.edge>path:hover{stroke-width:8}</style>
<polygon fill="blue" stroke="black" points="296.65,-217 242.65,-217 242.65,-181 296.65,-181 296.65,-217"/>
<text text-anchor="middle" x="269.65" y="-195.12" font-family="Helvetica,sans-Serif" font-size="10.00" fill="white">qse.utils</text>
</g>
<!-- numpy&#45;&gt;qse_utils -->
<g id="edge20" class="edge">
<title>numpy&#45;&gt;qse_utils</title><style>.edge>path:hover{stroke-width:8}</style>
<path fill="none" stroke="black" d="M371.65,-128C351.2,-145.36 326.43,-162.45 306.42,-175.39"/>
<polygon fill="#80f906" stroke="black" points="304.55,-172.43 298,-180.76 308.31,-178.33 304.55,-172.43"/>
</g>
<!-- numpy&#45;&gt;qse_visualise -->
<g id="edge21" class="edge">
<title>numpy&#45;&gt;qse_visualise</title><style>.edge>path:hover{stroke-width:8}</style>
<path fill="none" stroke="black" d="M324.65,-200C317.57,-212.41 317,-228.19 318.44,-241.62"/>
<polygon fill="#80f906" stroke="black" points="314.93,-241.82 319.89,-251.18 321.85,-240.77 314.93,-241.82"/>
</g>
<!-- scipy -->
<g id="node21" class="node">
<title>scipy</title><style>.edge>path:hover{stroke-width:8}</style>
<polygon fill="#d024a5" stroke="black" points="686.65,-145 683.65,-149 662.65,-149 659.65,-145 632.65,-145 632.65,-109 686.65,-109 686.65,-145"/>
<text text-anchor="middle" x="659.65" y="-123.12" font-family="Helvetica,sans-Serif" font-size="10.00" fill="#ffffff">scipy</text>
</g>
<!-- numpy&#45;&gt;scipy -->
<g id="edge22" class="edge">
<title>numpy&#45;&gt;scipy</title><style>.edge>path:hover{stroke-width:8}</style>
<path fill="none" stroke="black" d="M604.65,-73C602.42,-86.84 611.42,-98.29 622.74,-106.96"/>
<polygon fill="#80f906" stroke="black" points="620.66,-109.78 630.9,-112.47 624.57,-103.97 620.66,-109.78"/>
</g>
<!-- pulser_simulation -->
<g id="node5" class="node">
<title>pulser_simulation</title><style>.edge>path:hover{stroke-width:8}</style>
<polygon fill="#3db8b8" stroke="black" points="683.52,-372.52 680.52,-376.52 659.52,-376.52 656.52,-372.52 591.77,-372.52 591.77,-336.52 683.52,-336.52 683.52,-372.52"/>
<text text-anchor="middle" x="637.65" y="-350.65" font-family="Helvetica,sans-Serif" font-size="10.00" fill="#000000">pulser_simulation</text>
</g>
<!-- pulser&#45;&gt;pulser_simulation -->
<g id="edge23" class="edge">
<title>pulser&#45;&gt;pulser_simulation</title><style>.edge>path:hover{stroke-width:8}</style>
<path fill="none" stroke="black" d="M610.07,-289.29C614.62,-299.88 620.54,-313.68 625.74,-325.77"/>
<polygon fill="blue" stroke="black" points="622.48,-327.06 629.64,-334.87 628.91,-324.3 622.48,-327.06"/>
</g>
<!-- pulser&#45;&gt;qse_calc_pulser -->
<g id="edge24" class="edge">
<title>pulser&#45;&gt;qse_calc_pulser</title><style>.edge>path:hover{stroke-width:8}</style>
<path fill="none" stroke="black" d="M589.52,-289.34C578.79,-305.12 565.15,-329.56 563.65,-353.52"/>
</g>
<!-- pulser&#45;&gt;qse_qbits -->
<g id="edge25" class="edge">
<title>pulser&#45;&gt;qse_qbits</title><style>.edge>path:hover{stroke-width:8}</style>
<path fill="none" stroke="black" d="M575.22,-273.9C499.62,-279.79 291.34,-300.63 253.65,-353.52"/>
</g>
<!-- pulser_simulation&#45;&gt;qse_calc_pulser -->
<g id="edge26" class="edge">
<title>pulser_simulation&#45;&gt;qse_calc_pulser</title><style>.edge>path:hover{stroke-width:8}</style>
<path fill="none" stroke="black" d="M613.01,-372.78C594.1,-388.01 570.3,-412.16 564.65,-440.61"/>
</g>
<!-- qse_calc -->
<g id="node7" class="node">
<title>qse_calc</title><style>.edge>path:hover{stroke-width:8}</style>
<polygon fill="blue" stroke="black" points="348.65,-535.18 294.65,-535.18 294.65,-499.18 348.65,-499.18 348.65,-535.18"/>
<text text-anchor="middle" x="321.65" y="-513.3" font-family="Helvetica,sans-Serif" font-size="10.00" fill="white">qse.calc</text>
</g>
<!-- qse_calc&#45;&gt;qse -->
<g id="edge27" class="edge">
<title>qse_calc&#45;&gt;qse</title><style>.edge>path:hover{stroke-width:8}</style>
<path fill="none" stroke="black" d="M321.65,-535.45C321.65,-543.47 321.65,-553.22 321.65,-562.3"/>
<polygon fill="blue" stroke="black" points="318.15,-562.14 321.65,-572.14 325.15,-562.14 318.15,-562.14"/>
</g>
<!-- qse_calc_calculator&#45;&gt;qse_calc -->
<g id="edge28" class="edge">
<title>qse_calc_calculator&#45;&gt;qse_calc</title><style>.edge>path:hover{stroke-width:8}</style>
<path fill="none" stroke="black" d="M404.22,-461.94C389.97,-471.3 372.74,-482.62 357.71,-492.49"/>
<polygon fill="blue" stroke="black" points="355.9,-489.49 349.47,-497.91 359.75,-495.34 355.9,-489.49"/>
</g>
<!-- qse_calc_calculator&#45;&gt;qse_calc_myqlm -->
<g id="edge29" class="edge">
<title>qse_calc_calculator&#45;&gt;qse_calc_myqlm</title><style>.edge>path:hover{stroke-width:8}</style>
<path fill="none" stroke="black" d="M473.63,-457.17C504.69,-468.48 548.08,-484.28 582.13,-496.69"/>
<polygon fill="blue" stroke="black" points="475.04,-453.96 464.44,-453.83 472.64,-460.54 475.04,-453.96"/>
<polygon fill="blue" stroke="black" points="580.82,-499.93 591.41,-500.07 583.21,-493.36 580.82,-499.93"/>
</g>
<!-- qse_calc_calculator&#45;&gt;qse_calc_pulser -->
<g id="edge30" class="edge">
<title>qse_calc_calculator&#45;&gt;qse_calc_pulser</title><style>.edge>path:hover{stroke-width:8}</style>
<path fill="none" stroke="black" d="M445.48,-473.41C455.27,-498.92 469.12,-534.98 478.89,-560.43"/>
<polygon fill="blue" stroke="black" points="448.85,-472.43 442,-464.35 442.32,-474.94 448.85,-472.43"/>
<polygon fill="blue" stroke="black" points="475.54,-561.47 482.4,-569.56 482.08,-558.97 475.54,-561.47"/>
</g>
<!-- qse_calc_messages -->
<g id="node9" class="node">
<title>qse_calc_messages</title><style>.edge>path:hover{stroke-width:8}</style>
<ellipse fill="#2f5adb" stroke="black" cx="362.65" cy="-354.52" rx="43.13" ry="29.52"/>
<text text-anchor="middle" x="362.65" y="-361.9" font-family="Helvetica,sans-Serif" font-size="10.00" fill="#ffffff">qse.</text>
<text text-anchor="middle" x="362.65" y="-350.65" font-family="Helvetica,sans-Serif" font-size="10.00" fill="#ffffff">calc.</text>
<text text-anchor="middle" x="362.65" y="-339.4" font-family="Helvetica,sans-Serif" font-size="10.00" fill="#ffffff">messages</text>
</g>
<!-- qse_calc_messages&#45;&gt;qse_calc -->
<g id="edge31" class="edge">
<title>qse_calc_messages&#45;&gt;qse_calc</title><style>.edge>path:hover{stroke-width:8}</style>
<path fill="none" stroke="black" d="M371.01,-383.76C374.96,-400.26 378.46,-421.53 376.65,-440.61"/>
<path fill="none" stroke="black" d="M376.65,-442.61C374.89,-461.1 363.35,-478 351.28,-490.92"/>
<polygon fill="#2f5adb" stroke="black" points="349.05,-488.2 344.45,-497.75 354,-493.15 349.05,-488.2"/>
</g>
<!-- qse_calc_messages&#45;&gt;qse_calc_calculator -->
<g id="edge32" class="edge">
<title>qse_calc_messages&#45;&gt;qse_calc_calculator</title><style>.edge>path:hover{stroke-width:8}</style>
<path fill="none" stroke="black" d="M383.57,-380.59C391.65,-390.27 400.95,-401.42 409.32,-411.46"/>
<polygon fill="#2f5adb" stroke="black" points="406.63,-413.69 415.72,-419.13 412.01,-409.21 406.63,-413.69"/>
</g>
<!-- qse_calc_messages&#45;&gt;qse_calc_pulser -->
<g id="edge33" class="edge">
<title>qse_calc_messages&#45;&gt;qse_calc_pulser</title><style>.edge>path:hover{stroke-width:8}</style>
<path fill="none" stroke="black" d="M376.65,-442.61C371.65,-495.17 418.92,-540.81 454.12,-567.14"/>
<polygon fill="#2f5adb" stroke="black" points="451.85,-569.81 462,-572.84 455.95,-564.14 451.85,-569.81"/>
</g>
<!-- qse_magnetic&#45;&gt;qse -->
<g id="edge36" class="edge">
<title>qse_magnetic&#45;&gt;qse</title><style>.edge>path:hover{stroke-width:8}</style>
<path fill="none" stroke="black" d="M501.74,-372.88C506.35,-403.42 512.31,-468.05 490.65,-516.18"/>
<path fill="none" stroke="black" d="M490.65,-518.18C464.62,-564.23 401.58,-581.19 360.29,-587.43"/>
<polygon fill="blue" stroke="black" points="359.95,-583.95 350.51,-588.75 360.89,-590.88 359.95,-583.95"/>
</g>
<!-- qse_magnetic&#45;&gt;qse_calc_myqlm -->
<g id="edge37" class="edge">
<title>qse_magnetic&#45;&gt;qse_calc_myqlm</title><style>.edge>path:hover{stroke-width:8}</style>
<path fill="none" stroke="black" d="M524.8,-372.93C541.5,-384.89 562.88,-401.83 578.65,-420.04 596.84,-441.06 612.53,-468.66 622.81,-488.89"/>
<polygon fill="blue" stroke="black" points="619.57,-490.24 627.14,-497.65 625.84,-487.13 619.57,-490.24"/>
</g>
<!-- qse_magnetic&#45;&gt;qse_calc_pulser -->
<g id="edge38" class="edge">
<title>qse_magnetic&#45;&gt;qse_calc_pulser</title><style>.edge>path:hover{stroke-width:8}</style>
<path fill="none" stroke="black" d="M490.65,-518.18C484.87,-531.03 484.12,-546.49 485.11,-559.86"/>
<polygon fill="blue" stroke="black" points="481.6,-559.9 486.19,-569.45 488.55,-559.12 481.6,-559.9"/>
</g>
<!-- qse_qbit&#45;&gt;qse -->
<g id="edge39" class="edge">
<title>qse_qbit&#45;&gt;qse</title><style>.edge>path:hover{stroke-width:8}</style>
<path fill="none" stroke="black" d="M159.54,-372.76C162.07,-390.64 167.71,-418.97 179.65,-440.61"/>
</g>
<!-- qse_qbit&#45;&gt;qse_qbits -->
<g id="edge40" class="edge">
<title>qse_qbit&#45;&gt;qse_qbits</title><style>.edge>path:hover{stroke-width:8}</style>
<path fill="none" stroke="black" d="M171.59,-370.73C182.88,-383.04 199.01,-400.64 212.26,-415.1"/>
<polygon fill="#3359cc" stroke="black" points="209.31,-417.06 218.65,-422.07 214.47,-412.33 209.31,-417.06"/>
</g>
<!-- qse_qbits&#45;&gt;qse -->
<g id="edge41" class="edge">
<title>qse_qbits&#45;&gt;qse</title><style>.edge>path:hover{stroke-width:8}</style>
<path fill="none" stroke="black" d="M236.82,-459.84C238.45,-475.33 242.35,-498.32 251.65,-516.18"/>
</g>
<!-- qse_Signal&#45;&gt;qse_calc_myqlm -->
<g id="edge43" class="edge">
<title>qse_Signal&#45;&gt;qse_calc_myqlm</title><style>.edge>path:hover{stroke-width:8}</style>
<path fill="none" stroke="black" d="M826.08,-371.87C836.61,-389.03 849.51,-416.77 841.65,-440.61"/>
<path fill="none" stroke="black" d="M841.65,-442.61C831.72,-472.7 747.21,-494.82 689.56,-506.58"/>
<polygon fill="#405fc0" stroke="black" points="689.03,-503.11 679.9,-508.49 690.39,-509.98 689.03,-503.11"/>
</g>
<!-- qse_Signal&#45;&gt;qse_calc_pulser -->
<g id="edge44" class="edge">
<title>qse_Signal&#45;&gt;qse_calc_pulser</title><style>.edge>path:hover{stroke-width:8}</style>
<path fill="none" stroke="black" d="M841.65,-518.18C797.25,-561 611.11,-581.2 529.4,-588.14"/>
<polygon fill="#405fc0" stroke="black" points="529.32,-584.63 519.64,-588.94 529.89,-591.61 529.32,-584.63"/>
<path fill="none" stroke="black" d="M841.65,-442.61C831.41,-473.66 865.18,-493.48 841.65,-516.18"/>
</g>
<!-- qse_signal&#45;&gt;qse -->
<g id="edge42" class="edge">
<title>qse_signal&#45;&gt;qse</title><style>.edge>path:hover{stroke-width:8}</style>
<path fill="none" stroke="black" d="M99.65,-355.52C107.67,-368.47 108.77,-372.45 118.65,-384.04 142.62,-412.19 162.14,-408.05 179.65,-440.61"/>
<path fill="none" stroke="black" d="M49.76,-287.77C63.55,-303.64 84.59,-329.2 99.65,-353.52"/>
<path fill="none" stroke="black" d="M179.65,-442.61C201.32,-482.9 230.51,-475.6 251.65,-516.18"/>
<path fill="none" stroke="black" d="M251.65,-518.18C261.18,-536.47 276.72,-553.34 290.75,-566.22"/>
<polygon fill="#405fc0" stroke="black" points="288.27,-568.71 298.08,-572.71 292.91,-563.46 288.27,-568.71"/>
</g>
<!-- qse_utils&#45;&gt;qse -->
<g id="edge45" class="edge">
<title>qse_utils&#45;&gt;qse</title><style>.edge>path:hover{stroke-width:8}</style>
<path fill="none" stroke="black" d="M242.36,-209.28C184.45,-230.51 57.88,-286.07 99.65,-353.52"/>
</g>
<!-- qse_visualise&#45;&gt;qse -->
<g id="edge46" class="edge">
<title>qse_visualise&#45;&gt;qse</title><style>.edge>path:hover{stroke-width:8}</style>
<path fill="none" stroke="black" d="M296.31,-284.77C278.35,-293.96 255.58,-307.76 239.65,-325 229.83,-335.63 172.66,-427.94 179.65,-440.61"/>
</g>
<!-- qse_visualise&#45;&gt;qse_qbits -->
<g id="edge47" class="edge">
<title>qse_visualise&#45;&gt;qse_qbits</title><style>.edge>path:hover{stroke-width:8}</style>
<path fill="none" stroke="black" d="M308.97,-288.08C293.87,-303.98 270.86,-329.37 253.65,-353.52"/>
</g>
<!-- qutip&#45;&gt;qse_calc_pulser -->
<g id="edge48" class="edge">
<title>qutip&#45;&gt;qse_calc_pulser</title><style>.edge>path:hover{stroke-width:8}</style>
<path fill="none" stroke="black" d="M563.65,-355.52C561.28,-393.27 572.01,-403.51 564.65,-440.61"/>
<path fill="none" stroke="black" d="M564.65,-442.61C555.87,-486.83 530.16,-532.47 511.5,-561.27"/>
<polygon fill="#7a3db8" stroke="black" points="508.68,-559.19 506.08,-569.46 514.52,-563.05 508.68,-559.19"/>
<path fill="none" stroke="black" d="M551.38,-217.46C557.02,-245.9 566.75,-304.04 563.65,-353.52"/>
</g>
<!-- scipy&#45;&gt;pulser -->
<g id="edge49" class="edge">
<title>scipy&#45;&gt;pulser</title><style>.edge>path:hover{stroke-width:8}</style>
<path fill="none" stroke="black" d="M682.45,-145.31C696.54,-158.13 711.89,-176.96 711.65,-198"/>
<path fill="none" stroke="black" d="M711.65,-200C711.26,-234.45 672.31,-252.74 641.08,-261.87"/>
<polygon fill="#d024a5" stroke="black" points="640.23,-258.47 631.48,-264.44 642.04,-265.23 640.23,-258.47"/>
</g>
<!-- scipy&#45;&gt;qse_constraints -->
<g id="edge50" class="edge">
<title>scipy&#45;&gt;qse_constraints</title><style>.edge>path:hover{stroke-width:8}</style>
<path fill="none" stroke="black" d="M711.65,-200C710.88,-268.23 696.83,-286.92 711.65,-353.52"/>
</g>
</g>
</svg>
