<?xml version="1.0" encoding="utf-8" standalone="no"?>
<!DOCTYPE svg PUBLIC "-//W3C//DTD SVG 1.1//EN"
  "http://www.w3.org/Graphics/SVG/1.1/DTD/svg11.dtd">
<svg xmlns:xlink="http://www.w3.org/1999/xlink" width="460.8pt" height="345.6pt" viewBox="0 0 460.8 345.6" xmlns="http://www.w3.org/2000/svg" version="1.1">
 <metadata>
  <rdf:RDF xmlns:dc="http://purl.org/dc/elements/1.1/" xmlns:cc="http://creativecommons.org/ns#" xmlns:rdf="http://www.w3.org/1999/02/22-rdf-syntax-ns#">
   <cc:Work>
    <dc:type rdf:resource="http://purl.org/dc/dcmitype/StillImage"/>
    <dc:date>2025-09-04T11:49:39.043249</dc:date>
    <dc:format>image/svg+xml</dc:format>
    <dc:creator>
     <cc:Agent>
      <dc:title>Matplotlib v3.10.3, https://matplotlib.org/</dc:title>
     </cc:Agent>
    </dc:creator>
   </cc:Work>
  </rdf:RDF>
 </metadata>
 <defs>
  <style type="text/css">*{stroke-linejoin: round; stroke-linecap: butt}</style>
 </defs>
 <g id="figure_1">
  <g id="patch_1">
   <path d="M 0 345.6 
L 460.8 345.6 
L 460.8 0 
L 0 0 
L 0 345.6 
z
" style="fill: none"/>
  </g>
  <g id="axes_1">
   <g id="text_1">
    <!-- QSE -->
    <g style="fill: #1af280; opacity: 0" transform="translate(23.04 269.568) scale(0.01 -0.01)">
     <defs>
      <path id="DejaVuSans-51" d="M 2522 4238 
Q 1834 4238 1429 3725 
Q 1025 3213 1025 2328 
Q 1025 1447 1429 934 
Q 1834 422 2522 422 
Q 3209 422 3611 934 
Q 4013 1447 4013 2328 
Q 4013 3213 3611 3725 
Q 3209 4238 2522 4238 
z
M 3406 84 
L 4238 -825 
L 3475 -825 
L 2784 -78 
Q 2681 -84 2626 -87 
Q 2572 -91 2522 -91 
Q 1538 -91 948 567 
Q 359 1225 359 2328 
Q 359 3434 948 4092 
Q 1538 4750 2522 4750 
Q 3503 4750 4090 4092 
Q 4678 3434 4678 2328 
Q 4678 1516 4351 937 
Q 4025 359 3406 84 
z
" transform="scale(0.015625)"/>
      <path id="DejaVuSans-53" d="M 3425 4513 
L 3425 3897 
Q 3066 4069 2747 4153 
Q 2428 4238 2131 4238 
Q 1616 4238 1336 4038 
Q 1056 3838 1056 3469 
Q 1056 3159 1242 3001 
Q 1428 2844 1947 2747 
L 2328 2669 
Q 3034 2534 3370 2195 
Q 3706 1856 3706 1288 
Q 3706 609 3251 259 
Q 2797 -91 1919 -91 
Q 1588 -91 1214 -16 
Q 841 59 441 206 
L 441 856 
Q 825 641 1194 531 
Q 1563 422 1919 422 
Q 2459 422 2753 634 
Q 3047 847 3047 1241 
Q 3047 1584 2836 1778 
Q 2625 1972 2144 2069 
L 1759 2144 
Q 1053 2284 737 2584 
Q 422 2884 422 3419 
Q 422 4038 858 4394 
Q 1294 4750 2059 4750 
Q 2388 4750 2728 4690 
Q 3069 4631 3425 4513 
z
" transform="scale(0.015625)"/>
      <path id="DejaVuSans-45" d="M 628 4666 
L 3578 4666 
L 3578 4134 
L 1259 4134 
L 1259 2753 
L 3481 2753 
L 3481 2222 
L 1259 2222 
L 1259 531 
L 3634 531 
L 3634 0 
L 628 0 
L 628 4666 
z
" transform="scale(0.015625)"/>
     </defs>
     <use xlink:href="#DejaVuSans-51"/>
     <use xlink:href="#DejaVuSans-53" transform="translate(78.710938 0)"/>
     <use xlink:href="#DejaVuSans-45" transform="translate(142.1875 0)"/>
    </g>
   </g>
   <g id="text_2">
    <!-- QSE -->
    <g style="fill: #1aec80; opacity: 0.052632" transform="translate(23.04 269.568) scale(0.114737 -0.114737)">
     <use xlink:href="#DejaVuSans-51"/>
     <use xlink:href="#DejaVuSans-53" transform="translate(78.710938 0)"/>
     <use xlink:href="#DejaVuSans-45" transform="translate(142.1875 0)"/>
    </g>
   </g>
   <g id="text_3">
    <!-- QSE -->
    <g style="fill: #1ae680; opacity: 0.105263" transform="translate(23.04 269.568) scale(0.219474 -0.219474)">
     <use xlink:href="#DejaVuSans-51"/>
     <use xlink:href="#DejaVuSans-53" transform="translate(78.710938 0)"/>
     <use xlink:href="#DejaVuSans-45" transform="translate(142.1875 0)"/>
    </g>
   </g>
   <g id="text_4">
    <!-- QSE -->
    <g style="fill: #1ae080; opacity: 0.157895" transform="translate(23.04 269.568) scale(0.324211 -0.324211)">
     <use xlink:href="#DejaVuSans-51"/>
     <use xlink:href="#DejaVuSans-53" transform="translate(78.710938 0)"/>
     <use xlink:href="#DejaVuSans-45" transform="translate(142.1875 0)"/>
    </g>
   </g>
   <g id="text_5">
    <!-- QSE -->
    <g style="fill: #1ada80; opacity: 0.210526" transform="translate(23.04 269.568) scale(0.428947 -0.428947)">
     <use xlink:href="#DejaVuSans-51"/>
     <use xlink:href="#DejaVuSans-53" transform="translate(78.710938 0)"/>
     <use xlink:href="#DejaVuSans-45" transform="translate(142.1875 0)"/>
    </g>
   </g>
   <g id="text_6">
    <!-- QSE -->
    <g style="fill: #1ad480; opacity: 0.263158" transform="translate(23.04 269.568) scale(0.533684 -0.533684)">
     <use xlink:href="#DejaVuSans-51"/>
     <use xlink:href="#DejaVuSans-53" transform="translate(78.710938 0)"/>
     <use xlink:href="#DejaVuSans-45" transform="translate(142.1875 0)"/>
    </g>
   </g>
   <g id="text_7">
    <!-- QSE -->
    <g style="fill: #1acd80; opacity: 0.315789" transform="translate(23.04 269.568) scale(0.638421 -0.638421)">
     <use xlink:href="#DejaVuSans-51"/>
     <use xlink:href="#DejaVuSans-53" transform="translate(78.710938 0)"/>
     <use xlink:href="#DejaVuSans-45" transform="translate(142.1875 0)"/>
    </g>
   </g>
   <g id="text_8">
    <!-- QSE -->
    <g style="fill: #1ac680; opacity: 0.368421" transform="translate(23.04 269.568) scale(0.743158 -0.743158)">
     <use xlink:href="#DejaVuSans-51"/>
     <use xlink:href="#DejaVuSans-53" transform="translate(78.710938 0)"/>
     <use xlink:href="#DejaVuSans-45" transform="translate(142.1875 0)"/>
    </g>
   </g>
   <g id="text_9">
    <!-- QSE -->
    <g style="fill: #1abf80; opacity: 0.421053" transform="translate(23.04 269.568) scale(0.847895 -0.847895)">
     <use xlink:href="#DejaVuSans-51"/>
     <use xlink:href="#DejaVuSans-53" transform="translate(78.710938 0)"/>
     <use xlink:href="#DejaVuSans-45" transform="translate(142.1875 0)"/>
    </g>
   </g>
   <g id="text_10">
    <!-- QSE -->
    <g style="fill: #1ab880; opacity: 0.473684" transform="translate(23.04 269.568) scale(0.952632 -0.952632)">
     <use xlink:href="#DejaVuSans-51"/>
     <use xlink:href="#DejaVuSans-53" transform="translate(78.710938 0)"/>
     <use xlink:href="#DejaVuSans-45" transform="translate(142.1875 0)"/>
    </g>
   </g>
   <g id="text_11">
    <!-- QSE -->
    <g style="fill: #1ab080; opacity: 0.526316" transform="translate(23.04 269.568) scale(1.057368 -1.057368)">
     <use xlink:href="#DejaVuSans-51"/>
     <use xlink:href="#DejaVuSans-53" transform="translate(78.710938 0)"/>
     <use xlink:href="#DejaVuSans-45" transform="translate(142.1875 0)"/>
    </g>
   </g>
   <g id="text_12">
    <!-- QSE -->
    <g style="fill: #1aa980; opacity: 0.578947" transform="translate(23.04 269.568) scale(1.162105 -1.162105)">
     <use xlink:href="#DejaVuSans-51"/>
     <use xlink:href="#DejaVuSans-53" transform="translate(78.710938 0)"/>
     <use xlink:href="#DejaVuSans-45" transform="translate(142.1875 0)"/>
    </g>
   </g>
   <g id="text_13">
    <!-- QSE -->
    <g style="fill: #1aa080; opacity: 0.631579" transform="translate(23.04 269.568) scale(1.266842 -1.266842)">
     <use xlink:href="#DejaVuSans-51"/>
     <use xlink:href="#DejaVuSans-53" transform="translate(78.710938 0)"/>
     <use xlink:href="#DejaVuSans-45" transform="translate(142.1875 0)"/>
    </g>
   </g>
   <g id="text_14">
    <!-- QSE -->
    <g style="fill: #1a9780; opacity: 0.684211" transform="translate(23.04 269.568) scale(1.371579 -1.371579)">
     <use xlink:href="#DejaVuSans-51"/>
     <use xlink:href="#DejaVuSans-53" transform="translate(78.710938 0)"/>
     <use xlink:href="#DejaVuSans-45" transform="translate(142.1875 0)"/>
    </g>
   </g>
   <g id="text_15">
    <!-- QSE -->
    <g style="fill: #1a8e80; opacity: 0.736842" transform="translate(23.04 269.568) scale(1.476316 -1.476316)">
     <use xlink:href="#DejaVuSans-51"/>
     <use xlink:href="#DejaVuSans-53" transform="translate(78.710938 0)"/>
     <use xlink:href="#DejaVuSans-45" transform="translate(142.1875 0)"/>
    </g>
   </g>
   <g id="text_16">
    <!-- QSE -->
    <g style="fill: #1a8480; opacity: 0.789474" transform="translate(23.04 269.568) scale(1.581053 -1.581053)">
     <use xlink:href="#DejaVuSans-51"/>
     <use xlink:href="#DejaVuSans-53" transform="translate(78.710938 0)"/>
     <use xlink:href="#DejaVuSans-45" transform="translate(142.1875 0)"/>
    </g>
   </g>
   <g id="text_17">
    <!-- QSE -->
    <g style="fill: #1a7980; opacity: 0.842105" transform="translate(23.04 269.568) scale(1.685789 -1.685789)">
     <use xlink:href="#DejaVuSans-51"/>
     <use xlink:href="#DejaVuSans-53" transform="translate(78.710938 0)"/>
     <use xlink:href="#DejaVuSans-45" transform="translate(142.1875 0)"/>
    </g>
   </g>
   <g id="text_18">
    <!-- QSE -->
    <g style="fill: #1a6d80; opacity: 0.894737" transform="translate(23.04 269.568) scale(1.790526 -1.790526)">
     <use xlink:href="#DejaVuSans-51"/>
     <use xlink:href="#DejaVuSans-53" transform="translate(78.710938 0)"/>
     <use xlink:href="#DejaVuSans-45" transform="translate(142.1875 0)"/>
    </g>
   </g>
   <g id="text_19">
    <!-- QSE -->
    <g style="fill: #1a6080; opacity: 0.947368" transform="translate(23.04 269.568) scale(1.895263 -1.895263)">
     <use xlink:href="#DejaVuSans-51"/>
     <use xlink:href="#DejaVuSans-53" transform="translate(78.710938 0)"/>
     <use xlink:href="#DejaVuSans-45" transform="translate(142.1875 0)"/>
    </g>
   </g>
   <g id="text_20">
    <!-- QSE -->
    <g style="fill: #1a5180" transform="translate(23.04 269.568) scale(2 -2)">
     <use xlink:href="#DejaVuSans-51"/>
     <use xlink:href="#DejaVuSans-53" transform="translate(78.710938 0)"/>
     <use xlink:href="#DejaVuSans-45" transform="translate(142.1875 0)"/>
    </g>
   </g>
  </g>
 </g>
</svg>
